<?xml version="1.0" standalone="no"?>
<!DOCTYPE svg PUBLIC "-//W3C//DTD SVG 20010904//EN"
 "http://www.w3.org/TR/2001/REC-SVG-20010904/DTD/svg10.dtd">
<svg version="1.0" xmlns="http://www.w3.org/2000/svg"
 width="244.000000pt" height="244.000000pt" viewBox="0 0 244.000000 244.000000"
 preserveAspectRatio="xMidYMid meet">

<g transform="translate(0.000000,244.000000) scale(0.100000,-0.100000)"
fill="#000000" stroke="none">
<path d="M1197 1418 c6 -11 41 -10 47 1 3 4 -8 8 -23 7 -16 -1 -27 -4 -24 -8z"/>
<path d="M1416 1411 c-30 -11 -41 -12 -44 -3 -6 20 -29 13 -36 -11 -3 -15 -24
-32 -61 -50 l-55 -27 -55 27 c-37 18 -58 35 -61 50 -7 27 -8 27 -33 11 -15 -9
-25 -9 -46 0 -42 19 -74 15 -79 -10 -14 -70 -15 -191 -1 -218 18 -35 32 -40
106 -40 55 0 59 2 65 26 4 14 4 52 1 84 -4 31 -4 60 -1 62 2 3 27 -6 54 -21
l50 -26 51 27 c60 32 65 26 55 -61 -10 -84 -5 -91 64 -91 74 0 87 5 106 43 13
24 15 48 9 116 -3 47 -8 93 -11 102 -7 24 -33 27 -78 10z m43 -108 c-1 -49 -6
-94 -11 -100 -6 -7 -23 -13 -38 -13 -25 0 -28 3 -34 53 -10 89 -9 95 32 121
20 14 41 25 45 25 5 1 7 -38 6 -86z m-420 56 c32 -19 33 -22 27 -66 -3 -25 -6
-59 -6 -74 0 -25 -4 -29 -28 -29 -44 0 -52 16 -52 107 0 92 4 96 59 62z"/>
<path d="M610 1112 c-33 -5 -50 -20 -50 -43 0 -11 -7 -19 -15 -19 -8 0 -15 -9
-15 -20 0 -11 7 -20 15 -20 12 0 15 -14 15 -65 0 -58 2 -65 20 -65 18 0 20 7
20 64 0 59 2 65 23 68 29 4 29 32 -1 36 -28 4 -24 26 6 30 12 2 22 10 22 17 0
18 -9 22 -40 17z"/>
<path d="M1300 994 c0 -88 3 -115 13 -112 7 3 14 30 17 67 5 62 17 81 51 81
28 0 39 -23 39 -88 0 -46 3 -63 13 -60 19 7 21 115 2 144 -17 27 -71 34 -93
12 -9 -9 -12 -3 -12 30 0 31 -4 42 -15 42 -12 0 -15 -20 -15 -116z"/>
<path d="M177 1082 c-20 -22 -22 -65 -3 -81 7 -6 31 -17 52 -25 21 -7 40 -20
42 -29 5 -23 -36 -32 -57 -13 -10 9 -27 16 -38 16 -16 0 -20 -5 -16 -20 13
-50 90 -66 137 -29 45 36 30 90 -31 110 -45 14 -65 28 -57 40 8 14 40 10 54
-6 18 -21 50 -19 50 3 0 48 -98 73 -133 34z"/>
<path d="M826 1092 c-2 -4 -3 -52 -2 -107 l3 -100 61 -3 c51 -2 62 0 62 13 0
11 -12 15 -50 15 l-50 0 0 35 c0 35 0 35 45 35 33 0 45 4 45 15 0 11 -12 15
-45 15 -43 0 -45 1 -45 29 0 28 2 30 47 33 72 5 68 28 -6 28 -33 0 -62 -3 -65
-8z"/>
<path d="M372 1043 c-22 -9 -44 -63 -37 -94 11 -47 47 -68 116 -66 l59 1 0 81
0 81 -62 1 c-35 1 -69 -1 -76 -4z m88 -48 c17 -20 5 -62 -20 -70 -44 -14 -80
41 -48 73 17 17 53 15 68 -3z"/>
<path d="M672 1027 c-49 -52 -12 -147 57 -147 31 0 92 43 79 56 -5 4 -26 1
-48 -6 -36 -12 -43 -12 -58 3 -15 16 -12 17 45 17 34 0 64 4 67 9 9 14 -15 71
-34 81 -34 18 -85 12 -108 -13z m79 -17 c30 -16 23 -30 -16 -30 -44 0 -49 29
-7 39 2 1 12 -4 23 -9z"/>
<path d="M986 1010 l27 -40 -27 -41 c-15 -22 -25 -44 -21 -47 6 -7 35 23 55
57 9 15 11 15 20 0 21 -36 49 -64 56 -57 4 4 -6 26 -21 48 l-28 41 20 27 c33
45 35 52 20 52 -8 0 -24 -14 -35 -31 l-19 -31 -22 31 c-35 48 -57 40 -25 -9z"/>
<path d="M1152 1043 c-17 -6 -42 -57 -42 -83 0 -12 13 -35 29 -51 38 -38 82
-39 119 -2 30 30 14 47 -18 18 -25 -23 -70 -22 -87 1 -20 28 -16 71 9 88 30
21 54 20 78 -4 29 -29 47 -14 19 16 -22 23 -72 31 -107 17z"/>
<path d="M1509 1037 c-46 -35 -50 -88 -10 -128 31 -31 67 -37 104 -18 16 9 22
9 25 0 2 -6 8 -11 13 -11 5 0 9 38 9 85 0 76 -10 108 -23 73 -4 -10 -7 -10
-18 0 -17 15 -79 15 -100 -1z m89 -23 c22 -15 30 -57 14 -80 -16 -24 -51 -35
-74 -23 -44 23 -51 66 -18 99 24 24 48 25 78 4z"/>
<path d="M1690 964 c0 -64 3 -85 13 -82 7 3 14 30 17 67 5 62 17 81 51 81 28
0 39 -23 39 -87 0 -49 3 -63 15 -63 21 0 21 117 -1 148 -17 25 -71 30 -93 10
-11 -10 -14 -10 -18 0 -13 35 -23 3 -23 -74z"/>
<path d="M1902 1043 c-21 -8 -44 -63 -38 -89 13 -52 91 -85 124 -52 17 17 25
3 13 -21 -17 -31 -45 -43 -75 -31 -14 5 -26 14 -26 20 0 5 -7 10 -15 10 -23 0
-18 -16 11 -39 36 -28 79 -27 109 4 23 22 25 32 25 115 0 53 -4 90 -10 90 -5
0 -10 -5 -10 -10 0 -7 -6 -7 -19 0 -20 10 -66 12 -89 3z m87 -39 c27 -34 26
-40 -4 -69 -29 -30 -49 -31 -75 -5 -27 27 -26 65 2 84 32 23 54 20 77 -10z"/>
<path d="M2085 1025 c-52 -51 -16 -145 54 -145 33 0 101 49 69 50 -9 0 -20 -4
-23 -10 -9 -14 -68 -13 -83 2 -28 28 -13 38 59 38 61 0 70 2 65 16 -3 9 -6 20
-6 25 0 5 -9 18 -20 29 -29 29 -84 27 -115 -5z m93 -11 c35 -24 26 -34 -33
-34 -59 0 -64 4 -38 32 20 22 42 23 71 2z"/>
</g>
</svg>
